<svg width="13" height="11" viewBox="0 0 13 11" fill="none" xmlns="http://www.w3.org/2000/svg">
<path fill-rule="evenodd" clip-rule="evenodd" d="M0.0117188 1.7146C0.0117188 1.16231 0.459434 0.7146 1.01172 0.7146H11.25C11.8023 0.7146 12.25 1.16231 12.25 1.7146C12.25 2.26688 11.8023 2.7146 11.25 2.7146H1.01172C0.459434 2.7146 0.0117188 2.26688 0.0117188 1.7146Z" fill="#54B752"/>
<path fill-rule="evenodd" clip-rule="evenodd" d="M0.0117188 5.51636C0.0117188 4.96407 0.459434 4.51636 1.01172 4.51636H11.25C11.8023 4.51636 12.25 4.96407 12.25 5.51636C12.25 6.06864 11.8023 6.51636 11.25 6.51636H1.01172C0.459434 6.51636 0.0117188 6.06864 0.0117188 5.51636Z" fill="#54B752"/>
<path fill-rule="evenodd" clip-rule="evenodd" d="M0.0117188 9.31812C0.0117188 8.76583 0.459434 8.31812 1.01172 8.31812H11.25C11.8023 8.31812 12.25 8.76583 12.25 9.31812C12.25 9.8704 11.8023 10.3181 11.25 10.3181H1.01172C0.459434 10.3181 0.0117188 9.8704 0.0117188 9.31812Z" fill="#54B752"/>
</svg>