<svg width="21" height="21" viewBox="0 0 21 21" fill="none" xmlns="http://www.w3.org/2000/svg">
<path d="M11.8818 2.72778C8.88184 2.72778 6.38184 5.22778 6.38184 8.22778C6.38184 9.32778 6.68184 10.4278 7.28184 11.3278L3.38184 15.3278L4.88184 16.7278L8.78184 12.7278C9.68184 13.4278 10.7818 13.7278 11.8818 13.7278C14.8818 13.7278 17.3818 11.2278 17.3818 8.22778C17.3818 5.22778 14.9818 2.72778 11.8818 2.72778ZM11.8818 11.7278C9.98184 11.7278 8.38184 10.1278 8.38184 8.22778C8.38184 6.32778 9.98184 4.72778 11.8818 4.72778C13.8818 4.72778 15.3818 6.32778 15.3818 8.22778C15.3818 10.1278 13.8818 11.7278 11.8818 11.7278Z" fill="#232C36"/>
</svg>